<svg width="274" height="171" viewBox="0 0 274 171" fill="none" xmlns="http://www.w3.org/2000/svg">
<g clip-path="url(#clip0_1446_35617)">
<path d="M248.792 141.335V147.515H257.514V170.023H265.188V147.515H273.994V141.335H248.792Z" fill="white"/>
<path d="M247.333 170.022L241.211 160.651C244.608 158.932 246.453 155.74 246.453 151.402C246.453 145.018 242.008 141.335 234.208 141.335H220.999V170.023H228.673V162.084H234.208H234.376L238.653 170.023H247.333L247.333 170.022ZM228.673 147.31H234.25C237.353 147.31 239.156 148.824 239.156 151.648C239.156 154.553 237.353 156.108 234.25 156.108H228.673V147.31V147.31Z" fill="white"/>
<path d="M192.686 141.335V170.023H216.295V164.048H200.36V158.66L214.366 158.619V152.678H200.36V147.31H215.876V141.335H192.686Z" fill="white"/>
<path d="M177.097 141.335H164.182V170.023H171.856V162.084H177.098C184.603 162.084 188.923 158.155 188.923 151.403C188.923 145.019 184.603 141.336 177.098 141.336L177.097 141.335ZM176.72 156.109H171.856V147.31H176.72C179.823 147.31 181.626 148.824 181.626 151.648C181.626 154.553 179.823 156.108 176.72 156.108V156.109Z" fill="white"/>
<path d="M131.216 141.335L140.987 155.413L130.545 170.023H139.519L145.641 161.142L151.89 170.023H161.073L150.548 155.045L160.234 141.335H151.176L145.641 149.479L140.148 141.335H131.216Z" fill="white"/>
<path d="M104.919 141.335V170.023H128.527V164.048H112.593V158.66L126.598 158.619V152.678H112.593V147.31H128.108V141.335H104.919Z" fill="white"/>
<path d="M85.0099 141.169C76.4975 141.169 69.7042 147.594 69.7042 155.656C69.7042 163.759 76.4975 170.266 85.0099 170.266C93.5223 170.266 100.316 163.759 100.316 155.656C100.316 147.594 93.5223 141.169 85.0099 141.169V141.169ZM85.052 143.707C91.8032 143.707 97.3805 149.027 97.3805 155.656C97.3805 162.326 91.8034 167.728 85.052 167.728C78.2586 167.728 72.6395 162.326 72.6395 155.656C72.6395 149.026 78.2586 143.707 85.052 143.707Z" fill="white"/>
<path d="M49.063 141.43V170.035H51.9564V157.513H65.7524V154.976H51.9564V143.968H67.4299V141.43H49.063Z" fill="white"/>
<path d="M36.954 141.43V165.657L18.7548 141.43H15.6938V170.035H18.5871V145.809L36.7444 170.035H39.8054V141.43H36.954Z" fill="white"/>
<path d="M3.47943 153.058L3.57074 170.035H6.44539L6.37091 153.075C5.91658 153.158 5.44742 153.202 4.9686 153.202C4.45884 153.202 3.96072 153.152 3.47967 153.058L3.47943 153.058ZM4.96216 141.43C7.70319 141.43 9.92506 143.599 9.92506 146.273C9.92506 148.948 7.70319 151.116 4.96216 151.116C2.22187 151.116 0 148.948 0 146.273C0 143.599 2.22187 141.43 4.96216 141.43Z" fill="white"/>
<path d="M182.137 30.9021C173.39 30.9021 166.3 23.9839 166.3 15.452C166.3 6.91797 173.39 0 182.137 0C190.877 0 197.967 6.91822 197.967 15.452C197.967 23.9839 190.877 30.9021 182.137 30.9021ZM136.767 75.7918C128.027 75.7918 120.937 68.8743 120.937 60.3402C120.937 51.8062 128.027 44.889 136.767 44.889C145.515 44.889 152.604 51.806 152.604 60.3402C152.604 68.8745 145.515 75.7918 136.767 75.7918ZM91.401 30.9021C82.6573 30.9021 75.5682 23.9839 75.5682 15.452C75.5682 6.91797 82.6573 0 91.401 0C100.146 0 107.235 6.91822 107.235 15.452C107.235 23.9839 100.146 30.9021 91.401 30.9021V30.9021ZM91.401 120.681C82.6573 120.681 75.5682 113.762 75.5682 105.229C75.5682 96.6952 82.6573 89.7779 91.401 89.7779C100.146 89.7779 107.235 96.6952 107.235 105.229C107.235 113.762 100.146 120.681 91.401 120.681V120.681ZM182.137 120.681C173.39 120.681 166.3 113.762 166.3 105.229C166.3 96.6952 173.39 89.7779 182.137 89.7779C190.877 89.7779 197.967 96.6952 197.967 105.229C197.967 113.762 190.877 120.681 182.137 120.681Z" fill="white"/>
<path d="M150.147 27.0491C150.147 28.4584 148.976 29.6009 147.532 29.6009C146.088 29.6009 144.917 28.4584 144.917 27.0491C144.917 8.93224 140.412 5.1039 121.635 5.1039V5.10366C120.19 5.10366 119.02 3.96117 119.02 2.55183C119.02 1.14273 120.19 0 121.635 0C125.37 0 133.478 0 137.213 0C150.147 0 150.147 0 150.147 11.3604V27.0493H150.146L150.147 27.0491ZM150.613 106.713C150.626 106.586 150.639 106.46 150.646 106.334C151.063 100.489 153.614 94.9847 157.829 90.8132L165.767 82.9609C171.1 77.6841 179.242 78.4252 179.242 70.2116C179.242 65.4098 175.253 61.5173 170.333 61.5173C161.986 61.5173 162.541 69.5135 157.246 74.7558L149.307 82.6078C145.06 86.8105 139.398 89.308 133.375 89.8441C133.316 89.8494 133.256 89.8545 133.197 89.861C125.663 90.6123 119.65 96.6353 119.068 104.005C118.318 113.512 126.391 121.38 136.136 120.631C143.726 120.048 149.904 114.11 150.613 106.713ZM193.598 71.9381C193.598 73.3474 192.427 74.4901 190.983 74.4901C189.539 74.4901 188.369 73.3474 188.369 71.9381C188.369 53.8212 183.863 49.9929 165.086 49.9929V49.9926C163.642 49.9926 162.471 48.8501 162.471 47.4408C162.471 46.0314 163.642 44.889 165.086 44.889C168.822 44.889 176.93 44.889 180.665 44.889C193.598 44.889 193.598 44.889 193.598 56.2494V71.9381H193.598H193.598ZM107.161 61.8237C107.174 61.6974 107.188 61.5716 107.194 61.4453C107.612 55.6 110.163 50.0957 114.377 45.9242L122.315 38.0719C127.649 32.7951 135.79 33.5363 135.79 25.3229C135.79 20.5211 131.801 16.6283 126.881 16.6283C118.534 16.6283 119.089 24.6245 113.794 29.8668L105.856 37.7191C101.609 41.9218 95.9468 44.419 89.9238 44.9551C89.8639 44.9604 89.8046 44.9655 89.7449 44.972C82.211 45.7233 76.1984 51.7463 75.6166 59.1156C74.8666 68.6226 82.9392 76.4909 92.6844 75.7425C100.274 75.159 106.452 69.2215 107.161 61.824V61.8237Z" fill="white"/>
</g>
<defs>
<clipPath id="clip0_1446_35617">
<rect width="274" height="170.279" fill="white"/>
</clipPath>
</defs>
</svg>
